# xmcd
#
# Track frame offsets:
#	150
#	14826
#	37534
#	51323
#	75215
#	92078
#	113587
#	126992
#	151406
#	171293
#	188139
#	198334
#
# Disc length: 2916 seconds
#
# Revision: 0
# Processed by: cddbd v1.5.2PL0 Copyright (c) Steve Scherf et al.
# Submitted via: audiograbber 1.83.01
#
DISCID=900b620c
DTITLE=Eddie Taylor Jr. and Tre and Harmonica Hinds - From The Country To The City
DYEAR=2009
DGENRE=
TTITLE0=Love Me While I'm Livin'
TTITLE1=Church Bell Blues
TTITLE2=Can't Blame Nobody
TTITLE3=Get Out Of My House
TTITLE4=From The Country To The City
TTITLE5=I'm Your Lovin' Man
TTITLE6=I Got To Find My Baby
TTITLE7=She's The Reason
TTITLE8=Tell Me What You Wanna Do
TTITLE9=Crawlin' King Snake
TTITLE10=Preachers
TTITLE11=I Shot My Baby
EXTD=
EXTT0=
EXTT1=
EXTT2=
EXTT3=
EXTT4=
EXTT5=
EXTT6=
EXTT7=
EXTT8=
EXTT9=
EXTT10=
EXTT11=
PLAYORDER=
